<?xml version="1.0" encoding="utf-8"?>
<!-- Generator: Adobe Illustrator 23.0.3, SVG Export Plug-In . SVG Version: 6.00 Build 0)  -->
<svg version="1.1" id="Capa_1" xmlns="http://www.w3.org/2000/svg" xmlns:xlink="http://www.w3.org/1999/xlink" x="0px" y="0px"
	 viewBox="0 0 325 325" style="enable-background:new 0 0 325 325;" xml:space="preserve">
<style type="text/css">
	.st0{fill:url(#SVGID_1_);}
	.st1{fill:url(#SVGID_2_);}
	.st2{fill:url(#SVGID_3_);}
</style>
<g>
	<linearGradient id="SVGID_1_" gradientUnits="userSpaceOnUse" x1="146.6472" y1="275.379" x2="146.6472" y2="189.648">
		<stop  offset="0" style="stop-color:#26184C"/>
		<stop  offset="1" style="stop-color:#ED3A84"/>
	</linearGradient>
	<path class="st0" d="M117.9,234.1c-3,14.5-4.9,21.6-16.1,22.5c-2.8,0.2-5,2.3-5.4,5c-0.4,2.7,1.1,5.4,3.6,6.5
		c0.7,0.3,17.9,7.3,37.9,7.3c0,0,0,0,0,0c14,0,25.9-3.4,35.6-10.1c11.4-7.9,19.3-20.3,23.5-36.8l-38.6-38.9
		C125.9,194.9,121.3,217.4,117.9,234.1z"/>
	<linearGradient id="SVGID_2_" gradientUnits="userSpaceOnUse" x1="247.9626" y1="216.339" x2="247.9626" y2="61.043">
		<stop  offset="0" style="stop-color:#26184C"/>
		<stop  offset="1" style="stop-color:#ED3A84"/>
	</linearGradient>
	<path class="st1" d="M322.7,63.3c-1-1-2.9-2.3-5.8-2.3c-3.4,0-12.5,0-67.7,47c-25.5,21.7-54.9,48.6-78.3,71.4l36.6,36.9
		c24.1-25,52.1-56.4,74.5-83.3c14.1-17,24.9-31,32.2-41.7C323.8,77.3,328,68.7,322.7,63.3z"/>
	<linearGradient id="SVGID_3_" gradientUnits="userSpaceOnUse" x1="126.267" y1="308.529" x2="126.267" y2="16.512">
		<stop  offset="0" style="stop-color:#26184C"/>
		<stop  offset="1" style="stop-color:#ED3A84"/>
	</linearGradient>
	<path class="st2" d="M182.6,278.5c-12.4,8.6-27.4,12.9-44.7,12.9c-22.8,0-41.9-7.6-44-8.5c-9.4-3.9-14.9-13.7-13.3-23.7
		c1.6-9.9,9.5-17.4,19.3-18.4c0.9-2.6,1.8-7.3,2.3-9.8c1.9-9.2,4.4-21.9,12.4-33.1c8.6-12.3,21.7-20.2,38.8-23.5
		c9.8-9.7,21-20.4,32.7-31.3c-5.9-1.3-11.2-5.1-14-10.9c-4.9-10-0.6-22.1,9.5-26.9c10.1-4.8,22.3-0.6,27.2,9.4c1,2,1.6,4,1.8,6.1
		c9.7-8.7,19.3-17.1,28.4-24.8c0.1,0,0.1-0.1,0.2-0.1c-10.2-19.5-24.8-36.8-42.7-50.1c-25.6-19-56.1-29.1-88.2-29.1c0,0,0,0,0,0
		c-21.7,0-48,7.6-68.7,19.7C14,51.2,0,71.2,0,92.5c0,25.7,14.5,36.5,26.2,45.2c9.5,7.1,17,12.6,17,24.8c0,12.2-7.5,17.8-17,24.8
		C14.6,196,0,206.7,0,232.5c0,21.3,14,41.3,39.4,56.2c20.7,12.2,47.1,19.8,68.7,19.8c0,0,0,0,0,0c39.3,0,76.3-15.2,104-42.7
		c20.8-20.7,34.7-46.4,40.3-74.4c-14,15.5-28,30.5-40.6,43.3C206.6,254,196.8,268.7,182.6,278.5z M111.1,77.1
		c2.5-10.9,13.4-17.7,24.4-15.2c10.9,2.5,17.8,13.3,15.3,24.1c-2.5,10.8-13.4,17.6-24.4,15.2C115.4,98.8,108.6,87.9,111.1,77.1z
		 M45.1,114.2c-7-8.7-5.6-21.4,3.2-28.3c8.8-6.9,21.6-5.5,28.6,3.2c7,8.7,5.5,21.4-3.2,28.3C64.9,124.3,52.1,122.9,45.1,114.2z
		 M55.7,247.2c-8.8-6.9-10.2-19.6-3.2-28.3c7-8.7,19.8-10.1,28.6-3.2c8.8,6.9,10.2,19.6,3.2,28.3C77.3,252.7,64.5,254.1,55.7,247.2z
		"/>
</g>
</svg>
