<?xml version="1.0" encoding="utf-8"?>
<!-- Generator: Adobe Illustrator 23.0.3, SVG Export Plug-In . SVG Version: 6.00 Build 0)  -->
<svg version="1.1" id="Layer_35" xmlns="http://www.w3.org/2000/svg" xmlns:xlink="http://www.w3.org/1999/xlink" x="0px" y="0px"
	 viewBox="0 0 512 512" style="enable-background:new 0 0 512 512;" xml:space="preserve">
<style type="text/css">
	.st0{fill:url(#SVGID_1_);}
</style>
<linearGradient id="SVGID_1_" gradientUnits="userSpaceOnUse" x1="260" y1="496" x2="260" y2="33.888">
	<stop  offset="0" style="stop-color:#26184C"/>
	<stop  offset="1" style="stop-color:#ED3A84"/>
</linearGradient>
<path class="st0" d="M464,128H352v32h8v96h16v-16h88v96H312v16h15.5c-3.7,33.3-30.2,59.8-63.5,63.5V344h-16v120h-88V264h128v-16H160
	v-16h32c4.4,0,8-3.6,8-8v-64h40v-32H128v368h368v-32V128H464z M160,160h24v56h-24V160z M464,464H264v-32.4
	c42.1-3.8,75.8-37.4,79.6-79.6H464V464z M464,224h-88v-64h88V224z M50.3,98.3c3.1-3.1,8.2-3.1,11.3,0L72,108.7l14.3-14.3L79.1,80
	H32.9l-7.2,14.4L40,108.7L50.3,98.3z M56,488c17.6,0,32-14.4,32-32H24C24,473.6,38.4,488,56,488z M56,33.9L40.9,64h30.1L56,33.9z
	 M72,128c-2,0-4.1-0.8-5.7-2.3L56,115.3l-10.3,10.3c-3.1,3.1-8.2,3.1-11.3,0L24,115.3V408h64V115.3l-10.3,10.3
	C76.1,127.2,74,128,72,128L72,128z M24,424h64v16H24V424z"/>
</svg>
