<svg id="Layer_35" enable-background="new 0 0 64 64" height="512" viewBox="0 0 64 64" width="512" xmlns="http://www.w3.org/2000/svg"><g><path d="m58 16h-14v4h1v12h2v-2h11v12h-19v2h1.941c-.463 4.165-3.776 7.478-7.941 7.941v-8.941h-2v15h-11v-25h16v-2h-16v-2h4c.553 0 1-.447 1-1v-8h5v-4h-14v46h46v-4-42zm-38 4h3v7h-3zm38 38h-25v-4.051c5.268-.478 9.472-4.681 9.949-9.949h15.051zm0-30h-11v-8h11z"/><path d="m6.293 12.293c.391-.391 1.023-.391 1.414 0l1.293 1.293 1.783-1.783-.901-1.803h-5.764l-.901 1.803 1.783 1.783z"/><path d="m7 61c2.206 0 4-1.794 4-4h-8c0 2.206 1.794 4 4 4z"/><path d="m7 4.236-1.882 3.764h3.764z"/><path d="m9 16c-.256 0-.512-.098-.707-.293l-1.293-1.293-1.293 1.293c-.391.391-1.023.391-1.414 0l-1.293-1.293v36.586h8v-36.586l-1.293 1.293c-.195.195-.451.293-.707.293z"/><path d="m3 53h8v2h-8z"/></g></svg>