<?xml version="1.0" encoding="utf-8"?>
<!-- Generator: Adobe Illustrator 23.0.3, SVG Export Plug-In . SVG Version: 6.00 Build 0)  -->
<svg version="1.1" id="Capa_1" xmlns="http://www.w3.org/2000/svg" xmlns:xlink="http://www.w3.org/1999/xlink" x="0px" y="0px"
	 viewBox="0 0 512 512" style="enable-background:new 0 0 512 512;" xml:space="preserve">
<style type="text/css">
	.st0{fill:url(#XMLID_2_);}
</style>
<linearGradient id="XMLID_2_" gradientUnits="userSpaceOnUse" x1="256" y1="512" x2="256" y2="-6.728314e-06">
	<stop  offset="0" style="stop-color:#26184C"/>
	<stop  offset="1" style="stop-color:#ED3A84"/>
</linearGradient>
<path id="XMLID_1025_" class="st0" d="M475,0H37c-5.5,0-10,4.5-10,10v492c0,5.5,4.5,10,10,10h44c5.5,0,10-4.5,10-10v-30h330v30
	c0,5.5,4.5,10,10,10h44c5.5,0,10-4.5,10-10V10C485,4.5,480.5,0,475,0z M377,408h-44v-28h44V408z M387,360h-64c-5.5,0-10,4.5-10,10
	v38h-23v-38c0-5.5-4.5-10-10-10h-64c-5.5,0-10,4.5-10,10v38H91v-72h330v72h-24v-38C397,364.5,392.5,360,387,360z M270,408h-44v-28
	h44V408z M91,200h120c5.5,0,10-4.5,10-10s-4.5-10-10-10H91v-24h330v24H301c-5.5,0-10,4.5-10,10s4.5,10,10,10h120v72H290v-38
	c0-5.5-4.5-10-10-10h-48c-5.5,0-10,4.5-10,10v38h-23v-38c0-5.5-4.5-10-10-10h-64c-5.5,0-10,4.5-10,10v38H91L91,200z M179,136h-44
	v-28h44V136z M270,136h-28v-28h28V136z M377,136h-44v-28h44V136z M270,272h-28v-28h28V272z M179,272h-44v-28h44V272z M91,292h330v24
	H91L91,292z M421,136h-24V98c0-5.5-4.5-10-10-10h-64c-5.5,0-10,4.5-10,10v38h-23V98c0-5.5-4.5-10-10-10h-48c-5.5,0-10,4.5-10,10v38
	h-23V98c0-5.5-4.5-10-10-10h-64c-5.5,0-10,4.5-10,10v38H91V64h330V136z M421,44H91V20h330V44z M71,492H47V20h24V492z M91,452v-24
	h330v24H91z M465,492h-24V20h24V492z M256,200c2.6,0,5.2-1.1,7.1-2.9c1.9-1.9,2.9-4.4,2.9-7.1s-1.1-5.2-2.9-7.1
	c-1.9-1.9-4.4-2.9-7.1-2.9s-5.2,1.1-7.1,2.9s-2.9,4.4-2.9,7.1s1.1,5.2,2.9,7.1S253.4,200,256,200z"/>
</svg>
