<?xml version="1.0" encoding="utf-8"?>
<!-- Generator: Adobe Illustrator 23.0.3, SVG Export Plug-In . SVG Version: 6.00 Build 0)  -->
<svg version="1.1" id="Capa_1" xmlns="http://www.w3.org/2000/svg" xmlns:xlink="http://www.w3.org/1999/xlink" x="0px" y="0px"
	 viewBox="0 0 512 512" style="enable-background:new 0 0 512 512;" xml:space="preserve">
<style type="text/css">
	.st0{fill:url(#SVGID_1_);}
</style>
<linearGradient id="SVGID_1_" gradientUnits="userSpaceOnUse" x1="256" y1="512" x2="256" y2="-6.728314e-06">
	<stop  offset="0" style="stop-color:#26184C"/>
	<stop  offset="1" style="stop-color:#ED3A84"/>
</linearGradient>
<path class="st0" d="M512,256C512,114.8,397.2,0,256,0S0,114.8,0,256s114.8,256,256,256h224v-32H379.7
	C458.5,436.3,512,352.3,512,256L512,256z M293.6,307.8c21.4-15.6,51.5-10.8,67,10.6c15.6,21.4,10.8,51.5-10.6,67
	c-21.4,15.6-51.5,10.8-67-10.6C267.4,353.4,272.2,323.4,293.6,307.8z M347.7,175.7c25.2-8.2,52.3,5.6,60.5,30.8
	c8.2,25.2-5.6,52.3-30.8,60.5c-25.2,8.2-52.3-5.6-60.5-30.8C308.7,211,322.5,183.9,347.7,175.7z M256,96c26.5,0,48,21.5,48,48
	s-21.5,48-48,48s-48-21.5-48-48S229.5,96,256,96z M103.8,206.6c8.2-25.2,35.3-39,60.5-30.8c25.2,8.2,39,35.3,30.8,60.5
	c-8.2,25.2-35.3,39-60.5,30.8C109.4,258.8,95.6,231.8,103.8,206.6L103.8,206.6z M229,374.8c-15.6,21.4-45.6,26.2-67,10.6
	c-21.4-15.6-26.2-45.6-10.6-67c15.6-21.4,45.6-26.2,67-10.6C239.8,323.4,244.6,353.4,229,374.8L229,374.8z M224,256
	c0-17.7,14.3-32,32-32s32,14.3,32,32c0,17.7-14.3,32-32,32S224,273.7,224,256z"/>
</svg>
