<?xml version="1.0" encoding="utf-8"?>
<!-- Generator: Adobe Illustrator 23.0.3, SVG Export Plug-In . SVG Version: 6.00 Build 0)  -->
<svg version="1.1" id="Layer_1" xmlns="http://www.w3.org/2000/svg" xmlns:xlink="http://www.w3.org/1999/xlink" x="0px" y="0px"
	 viewBox="0 0 512 512" style="enable-background:new 0 0 512 512;" xml:space="preserve">
<style type="text/css">
	.st0{fill:url(#SVGID_1_);}
</style>
<linearGradient id="SVGID_1_" gradientUnits="userSpaceOnUse" x1="256" y1="512" x2="256" y2="-6.728314e-06">
	<stop  offset="0" style="stop-color:#26184C"/>
	<stop  offset="1" style="stop-color:#ED3A84"/>
</linearGradient>
<path class="st0" d="M15,437c0,31.3,16,58.9,40.2,75h401.5c24.3-16.1,40.2-43.7,40.2-75H15z M166,225c0,8.3,6.7,15,15,15
	s15-6.7,15-15v-15h120v75c0,8.3,6.7,15,15,15s15-6.7,15-15v-75h90V75H76v135h90V225z M376,285c0,24.8-20.2,45-45,45s-45-20.2-45-45
	v-45h-62.6c-6.2,17.5-22.9,30-42.4,30s-36.2-12.5-42.4-30H76v62c0,39.2,12.5,75.4,33.8,105h292.4c21.3-29.6,33.8-65.8,33.8-105v-62
	h-60V285z M76,0h360v45H76V0z"/>
</svg>
