<?xml version="1.0" encoding="utf-8"?>
<!-- Generator: Adobe Illustrator 23.0.3, SVG Export Plug-In . SVG Version: 6.00 Build 0)  -->
<svg version="1.1" id="Layer_1" xmlns="http://www.w3.org/2000/svg" xmlns:xlink="http://www.w3.org/1999/xlink" x="0px" y="0px"
	 viewBox="0 0 512 512" style="enable-background:new 0 0 512 512;" xml:space="preserve">
<style type="text/css">
	.st0{fill:url(#SVGID_1_);}
</style>
<linearGradient id="SVGID_1_" gradientUnits="userSpaceOnUse" x1="256" y1="512" x2="256" y2="-9.094947e-13">
	<stop  offset="0" style="stop-color:#26184C"/>
	<stop  offset="1" style="stop-color:#ED3A84"/>
</linearGradient>
<path class="st0" d="M256,234.7c11.8,0,21.3,9.6,21.3,21.3s-9.6,21.3-21.3,21.3s-21.3-9.6-21.3-21.3S244.2,234.7,256,234.7z
	 M489.8,151.9c-2.1-4.6-6.9-7.1-12-6.1c-4.9,1.1-8.4,5.4-8.4,10.4v142.4c0,2.8-1.1,5.6-3.1,7.5L428,344.5c-4.2,4.2-4.2,10.9,0,15.1
	l6.3,6.3c2,2,3.1,4.7,3.1,7.5s-1.1,5.5-3.1,7.5l-64,64c-4,4-11,4-15.1,0l-6.3-6.3c-4.2-4.2-10.9-4.2-15.1,0l-6.3,6.3
	c-4,4-11,4-15.1,0c-2-2-3.1-4.7-3.1-7.5s1.1-5.5,3.1-7.5l6.3-6.3c4.2-4.2,4.2-10.9,0-15.1l-6.3-6.3c-2-2-3.1-4.7-3.1-7.5
	s1.1-5.5,3.1-7.5l64-64c4-4,11-4,15.1,0l6.3,6.3c4.2,4.2,10.9,4.2,15.1,0l32-32c2-2,3.1-4.7,3.1-7.5V10.7C448,4.8,443.2,0,437.3,0
	s-10.7,4.8-10.7,10.7v55C379.9,23.7,319,0,256,0C114.8,0,0,114.8,0,256s114.8,256,256,256s256-114.8,256-256
	C512,220,504.5,185,489.8,151.9z M127.6,138.7c-2.7,0-5.4-1-7.5-3.1c-4.2-4.2-4.2-10.9,0-15.1C156.3,84.1,204.6,64,256,64
	c5.9,0,10.7,4.8,10.7,10.7s-4.8,10.7-10.7,10.7c-45.7,0-88.6,17.8-120.9,50.2C133,137.6,130.3,138.7,127.6,138.7z M149.3,256
	c0-58.8,47.9-106.7,106.7-106.7S362.7,197.2,362.7,256S314.8,362.7,256,362.7S149.3,314.8,149.3,256z"/>
</svg>
