<?xml version="1.0" encoding="utf-8"?>
<!-- Generator: Adobe Illustrator 23.0.3, SVG Export Plug-In . SVG Version: 6.00 Build 0)  -->
<svg version="1.1" id="Layer_1" xmlns="http://www.w3.org/2000/svg" xmlns:xlink="http://www.w3.org/1999/xlink" x="0px" y="0px"
	 viewBox="0 0 480 480" style="enable-background:new 0 0 480 480;" xml:space="preserve">
<style type="text/css">
	.st0{fill:url(#SVGID_1_);}
</style>
<linearGradient id="SVGID_1_" gradientUnits="userSpaceOnUse" x1="240.0011" y1="479.9991" x2="240.0011" y2="8.697908e-03">
	<stop  offset="0" style="stop-color:#26184C"/>
	<stop  offset="1" style="stop-color:#ED3A84"/>
</linearGradient>
<path class="st0" d="M128,104V72c0-4.4-3.6-8-8-8H8c-4.4,0-8,3.6-8,8v32H128z M0,120v264h128V120H0z M96,224H32c-4.4,0-8-3.6-8-8
	v-64c0-4.4,3.6-8,8-8h64c4.4,0,8,3.6,8,8v64C104,220.4,100.4,224,96,224z M0,432v40c0,4.4,3.6,8,8,8h112c4.4,0,8-3.6,8-8v-40H0z
	 M0,400h128v16H0V400z M144,400h104v16H144V400z M248,32V8c0-4.4-3.6-8-8-8h-88c-4.4,0-8,3.6-8,8v24H248z M144,88h104v296H144V88z
	 M144,432v40c0,4.4,3.6,8,8,8h88c4.4,0,8-3.6,8-8v-40H144z M144,48h104v24H144V48z M263.8,165.7l4.3,16.4L403.6,146l-4.3-16.4
	L263.8,165.7z M330.7,421.9l135.5-36.1l-8.6-32.9l-135.5,36.1L330.7,421.9z M453.5,337.5l-45.9-176l-135.5,36.1l45.9,176
	L453.5,337.5z M259.8,150.2l135.5-36.1L383.8,70c-1.2-4.3-5.5-6.8-9.8-5.8l-120,32c-4.2,1.2-6.8,5.5-5.7,9.8L259.8,150.2z
	 M470.2,401.3l-135.5,36.1l9.5,36.6c0.6,2.1,1.9,3.8,3.8,4.9c1.2,0.7,2.6,1.1,4,1.1c0.7,0,1.4-0.1,2.1-0.2l120-32
	c4.2-1.2,6.8-5.5,5.7-9.8L470.2,401.3z"/>
</svg>
