<?xml version="1.0" encoding="utf-8"?>
<!-- Generator: Adobe Illustrator 23.0.3, SVG Export Plug-In . SVG Version: 6.00 Build 0)  -->
<svg version="1.1" id="Layer_1" xmlns="http://www.w3.org/2000/svg" xmlns:xlink="http://www.w3.org/1999/xlink" x="0px" y="0px"
	 viewBox="0 0 469.3 469.3" style="enable-background:new 0 0 469.3 469.3;" xml:space="preserve">
<style type="text/css">
	.st0{fill:url(#SVGID_1_);}
	.st1{fill:url(#SVGID_2_);}
</style>
<g>
	<g>
		<g>
			<linearGradient id="SVGID_1_" gradientUnits="userSpaceOnUse" x1="234.667" y1="469.334" x2="234.667" y2="-6.728314e-06">
				<stop  offset="0" style="stop-color:#26184C"/>
				<stop  offset="1" style="stop-color:#ED3A84"/>
			</linearGradient>
			<path class="st0" d="M458.7,181.3c5.9,0,10.7-4.8,10.7-10.7s-4.8-10.7-10.7-10.7h-32v-42.7h32c5.9,0,10.7-4.8,10.7-10.7
				S464.6,96,458.7,96h-32V85.3c0-23.5-19.1-42.7-42.7-42.7h-10.7v-32c0-5.9-4.8-10.7-10.7-10.7S352,4.8,352,10.7v32h-42.7v-32
				c0-5.9-4.8-10.7-10.7-10.7S288,4.8,288,10.7v32h-42.7v-32c0-5.9-4.8-10.7-10.7-10.7S224,4.8,224,10.7v32h-42.7v-32
				c0-5.9-4.8-10.7-10.7-10.7S160,4.8,160,10.7v32h-42.7v-32c0-5.9-4.8-10.7-10.7-10.7S96,4.8,96,10.7v32H85.3
				c-23.5,0-42.7,19.1-42.7,42.7V96h-32C4.8,96,0,100.8,0,106.7s4.8,10.7,10.7,10.7h32V160h-32C4.8,160,0,164.8,0,170.7
				s4.8,10.7,10.7,10.7h32V224h-32C4.8,224,0,228.8,0,234.7s4.8,10.7,10.7,10.7h32V288h-32C4.8,288,0,292.8,0,298.7
				s4.8,10.7,10.7,10.7h32V352h-32C4.8,352,0,356.8,0,362.7s4.8,10.7,10.7,10.7h32V384c0,23.5,19.1,42.7,42.7,42.7H96v32
				c0,5.9,4.8,10.7,10.7,10.7s10.7-4.8,10.7-10.7v-32H160v32c0,5.9,4.8,10.7,10.7,10.7s10.7-4.8,10.7-10.7v-32H224v32
				c0,5.9,4.8,10.7,10.7,10.7s10.7-4.8,10.7-10.7v-32H288v32c0,5.9,4.8,10.7,10.7,10.7s10.7-4.8,10.7-10.7v-32H352v32
				c0,5.9,4.8,10.7,10.7,10.7s10.7-4.8,10.7-10.7v-32H384c23.5,0,42.7-19.1,42.7-42.7v-10.7h32c5.9,0,10.7-4.8,10.7-10.7
				s-4.8-10.7-10.7-10.7h-32v-42.7h32c5.9,0,10.7-4.8,10.7-10.7s-4.8-10.7-10.7-10.7h-32v-42.7h32c5.9,0,10.7-4.8,10.7-10.7
				s-4.8-10.7-10.7-10.7h-32v-42.7L458.7,181.3L458.7,181.3z M384,373.3c0,5.9-4.8,10.7-10.7,10.7H96c-5.9,0-10.7-4.8-10.7-10.7V96
				c0-5.9,4.8-10.7,10.7-10.7h277.3c5.9,0,10.7,4.8,10.7,10.7V373.3z"/>
			<linearGradient id="SVGID_2_" gradientUnits="userSpaceOnUse" x1="234.667" y1="362.667" x2="234.667" y2="106.667">
				<stop  offset="0" style="stop-color:#26184C"/>
				<stop  offset="1" style="stop-color:#ED3A84"/>
			</linearGradient>
			<rect x="106.7" y="106.7" class="st1" width="256" height="256"/>
		</g>
	</g>
</g>
</svg>
