<?xml version="1.0" encoding="utf-8"?>
<!-- Generator: Adobe Illustrator 23.0.3, SVG Export Plug-In . SVG Version: 6.00 Build 0)  -->
<svg version="1.1" id="Capa_1" xmlns="http://www.w3.org/2000/svg" xmlns:xlink="http://www.w3.org/1999/xlink" x="0px" y="0px"
	 viewBox="0 0 512 512" style="enable-background:new 0 0 512 512;" xml:space="preserve">
<style type="text/css">
	.st0{fill:url(#SVGID_1_);}
	.st1{fill:#FFFFFF;}
	.st2{fill:url(#SVGID_2_);}
</style>
<linearGradient id="SVGID_1_" gradientUnits="userSpaceOnUse" x1="264" y1="512" x2="264" y2="-9.094947e-13">
	<stop  offset="0" style="stop-color:#26184C"/>
	<stop  offset="1" style="stop-color:#EE3A85"/>
</linearGradient>
<path class="st0" d="M228.8,0c-54.7,0-99.1,44.5-99.1,99.1c0,54.7,44.5,99.1,99.1,99.1s99.1-44.5,99.1-99.1
	C327.9,44.5,283.5,0,228.8,0z M228.8,168.2c-38.1,0-69.1-31-69.1-69.1s31-69.1,69.1-69.1c38.1,0,69.1,31,69.1,69.1
	C297.9,137.2,266.9,168.2,228.8,168.2z M362.3,318v-23.9c0-41.4-33.6-75-75-75h-117c-41.4,0-75,33.6-75,75v147c0,24.8,20.2,45,45,45
	h126.5c17.6,16.1,41.1,25.9,66.7,25.9c54.7,0,99.1-44.5,99.1-99.1C432.7,368.2,403,330.4,362.3,318z"/>
<path class="st1" d="M244.4,456.1h-104c-8.3,0-15-6.7-15-15v-147c0-24.8,20.2-45,45-45h117c24.8,0,45,20.2,45,45v19.7
	c-54.1,0.7-97.9,44.9-97.9,99.1C234.4,428.4,238,443,244.4,456.1z"/>
<path class="st1" d="M333.6,482c-38.1,0-69.1-31-69.1-69.1c0-38.1,31-69.1,69.1-69.1s69.1,31,69.1,69.1
	C402.7,451,371.7,482,333.6,482z"/>
<g>
	<linearGradient id="SVGID_2_" gradientUnits="userSpaceOnUse" x1="333.555" y1="463.526" x2="333.555" y2="362.236">
		<stop  offset="0" style="stop-color:#3B1C52"/>
		<stop  offset="1" style="stop-color:#5F225C"/>
	</linearGradient>
	<path class="st2" d="M369.2,397.9h-20.6v-20.6c0-8.3-6.7-15-15-15s-15,6.7-15,15v20.6h-20.6c-8.3,0-15,6.7-15,15s6.7,15,15,15h20.6
		v20.6c0,8.3,6.7,15,15,15s15-6.7,15-15v-20.6h20.6c8.3,0,15-6.7,15-15S377.5,397.9,369.2,397.9z"/>
</g>
</svg>
