<?xml version="1.0" encoding="utf-8"?>
<!-- Generator: Adobe Illustrator 23.0.3, SVG Export Plug-In . SVG Version: 6.00 Build 0)  -->
<svg version="1.1" id="Capa_1" xmlns="http://www.w3.org/2000/svg" xmlns:xlink="http://www.w3.org/1999/xlink" x="0px" y="0px"
	 viewBox="0 0 512 512" style="enable-background:new 0 0 512 512;" xml:space="preserve">
<style type="text/css">
	.st0{fill:url(#SVGID_1_);}
</style>
<linearGradient id="SVGID_1_" gradientUnits="userSpaceOnUse" x1="284" y1="512" x2="284" y2="-9.094947e-13">
	<stop  offset="0" style="stop-color:#26184C"/>
	<stop  offset="1" style="stop-color:#ED3A84"/>
</linearGradient>
<path class="st0" d="M248.8,0c-54.7,0-99.1,44.5-99.1,99.1c0,54.7,44.5,99.1,99.1,99.1s99.1-44.5,99.1-99.1
	C347.9,44.5,303.5,0,248.8,0z M248.8,168.2c-38.1,0-69.1-31-69.1-69.1c0-38.1,31-69.1,69.1-69.1s69.1,31,69.1,69.1
	C317.9,137.2,286.9,168.2,248.8,168.2z M382.3,318v-23.9c0-41.4-33.6-75-75-75h-117c-41.4,0-75,33.6-75,75v147c0,24.8,20.2,45,45,45
	h126.5c17.6,16.1,41.1,25.9,66.8,25.9c54.7,0,99.1-44.5,99.1-99.1C452.7,368.2,423,330.4,382.3,318z M264.4,456.1h-104
	c-8.3,0-15-6.7-15-15v-147c0-24.8,20.2-45,45-45h117c24.8,0,45,20.2,45,45v19.7c-54.1,0.7-97.9,44.9-97.9,99.1
	C254.4,428.4,258,443,264.4,456.1z M284.4,412.9c0-38.1,31-69.1,69.1-69.1c13.6,0,26.4,4,37.1,10.8L295.3,450
	C288.4,439.2,284.4,426.5,284.4,412.9z M353.6,482c-13.6,0-26.4-4-37.1-10.8l95.4-95.4c6.8,10.7,10.8,23.4,10.8,37.1
	C422.7,451,391.7,482,353.6,482z"/>
</svg>
