<?xml version="1.0" encoding="utf-8"?>
<!-- Generator: Adobe Illustrator 23.0.3, SVG Export Plug-In . SVG Version: 6.00 Build 0)  -->
<svg version="1.1" id="Capa_1" xmlns="http://www.w3.org/2000/svg" xmlns:xlink="http://www.w3.org/1999/xlink" x="0px" y="0px"
	 viewBox="0 0 512 512" style="enable-background:new 0 0 512 512;" xml:space="preserve">
<style type="text/css">
	.st0{fill:url(#SVGID_1_);}
</style>
<linearGradient id="SVGID_1_" gradientUnits="userSpaceOnUse" x1="256" y1="512" x2="256" y2="-2.861024e-06">
	<stop  offset="0" style="stop-color:#26184C"/>
	<stop  offset="1" style="stop-color:#ED3A84"/>
</linearGradient>
<path class="st0" d="M459.4,132.9L330.9,4.4c-2.8-2.8-6.6-4.4-10.6-4.4H103.4C72.9,0,48.2,24.7,48.2,55.2v401.7
	c0,30.4,24.7,55.2,55.2,55.2h305.3c30.4,0,55.2-24.7,55.2-55.2V143.5C463.8,139.6,462.2,135.7,459.4,132.9L459.4,132.9z M335.3,51.2
	l77.3,77.3h-52.2c-13.9,0-25.2-11.3-25.2-25.2V51.2z M408.6,482H103.4c-13.9,0-25.2-11.3-25.2-25.2V55.2c0-13.9,11.3-25.2,25.2-25.2
	h201.9v73.4c0,30.4,24.7,55.2,55.2,55.2h73.4v298.3C433.8,470.7,422.5,482,408.6,482L408.6,482z M191.7,224.9h-64.3
	c-8.3,0-15,6.7-15,15v64.3c0,8.3,6.7,15,15,15h64.3c8.3,0,15-6.7,15-15v-64.3C206.7,231.6,200,224.9,191.7,224.9L191.7,224.9z
	 M176.7,289.2h-34.3v-34.3h34.3V289.2z M191.7,353.5h-64.3c-8.3,0-15,6.7-15,15v64.3c0,8.3,6.7,15,15,15h64.3c8.3,0,15-6.7,15-15
	v-64.3C206.7,360.2,200,353.5,191.7,353.5z M176.7,417.7h-34.3v-34.3h34.3V417.7z M241,239.9c0,8.3,6.7,15,15,15h64.3
	c8.3,0,15-6.7,15-15s-6.7-15-15-15H256C247.7,224.9,241,231.6,241,239.9z M384.5,289.2H256c-8.3,0-15,6.7-15,15s6.7,15,15,15h128.5
	c8.3,0,15-6.7,15-15S392.8,289.2,384.5,289.2z M256,383.5h64.3c8.3,0,15-6.7,15-15s-6.7-15-15-15H256c-8.3,0-15,6.7-15,15
	S247.7,383.5,256,383.5z M384.5,417.7H256c-8.3,0-15,6.7-15,15s6.7,15,15,15h128.5c8.3,0,15-6.7,15-15S392.8,417.7,384.5,417.7z
	 M127.5,110.3h80.3c8.3,0,15-6.7,15-15s-6.7-15-15-15h-80.3c-8.3,0-15,6.7-15,15S119.2,110.3,127.5,110.3z M127.5,174.6H256
	c8.3,0,15-6.7,15-15s-6.7-15-15-15H127.5c-8.3,0-15,6.7-15,15S119.2,174.6,127.5,174.6z"/>
</svg>
