<?xml version="1.0" encoding="utf-8"?>
<!-- Generator: Adobe Illustrator 23.0.3, SVG Export Plug-In . SVG Version: 6.00 Build 0)  -->
<svg version="1.1" id="Layer_1" xmlns="http://www.w3.org/2000/svg" xmlns:xlink="http://www.w3.org/1999/xlink" x="0px" y="0px"
	 viewBox="0 0 595.28 841.89" style="enable-background:new 0 0 595.28 841.89;" xml:space="preserve">
<style type="text/css">
	.st0{fill:url(#SVGID_1_);}
	.st1{fill:url(#SVGID_2_);}
	.st2{fill:url(#SVGID_3_);}
	.st3{fill:url(#SVGID_4_);}
	.st4{fill:url(#SVGID_5_);}
	.st5{fill:url(#SVGID_6_);}
	.st6{fill:url(#SVGID_7_);}
	.st7{fill:url(#SVGID_8_);}
	.st8{fill:none;}
	.st9{fill:url(#SVGID_9_);}
	.st10{fill:url(#SVGID_10_);stroke:#FFFFFF;stroke-width:3;stroke-miterlimit:10;}
	.st11{fill:url(#SVGID_11_);stroke:#FFFFFF;stroke-width:3;stroke-miterlimit:10;}
	.st12{fill:url(#SVGID_12_);stroke:#FFFFFF;stroke-width:3;stroke-miterlimit:10;}
</style>
<g>
	<g>
		<linearGradient id="SVGID_1_" gradientUnits="userSpaceOnUse" x1="105.5957" y1="347.0962" x2="105.5957" y2="223.9595">
			<stop  offset="0" style="stop-color:#26184C"/>
			<stop  offset="1" style="stop-color:#EE3A85"/>
		</linearGradient>
		<path class="st0" d="M129.16,262.25l-16.99,41.74h39.25c5.25,0,7.87,1.81,7.87,5.44c0,2.57-0.93,4.56-2.78,5.98
			c-1.85,1.42-4.42,2.12-7.7,2.12h-42.14l-0.68,1.59c-2.64,5.89-4.72,10.03-6.23,12.4c-1.51,2.38-3.47,4.68-5.89,6.91
			c-6.31,5.78-13.56,8.67-21.75,8.67c-6.65,0-12.13-1.98-16.45-5.95c-4.32-3.96-6.49-9.01-6.49-15.12c0-3.81,0.93-7.38,2.78-10.71
			c1.85-3.32,4.36-5.91,7.53-7.76c4.12-2.38,9.7-3.57,16.77-3.57h19.99l16.94-41.74h-6.8h-1.53c-4.23,0-6.34-1.87-6.34-5.61
			c0-2.45,0.92-4.39,2.78-5.81c1.85-1.42,4.42-2.12,7.7-2.12h9.69l2.61-6.4c4.95-12.23,12.5-18.35,22.66-18.35
			c5.17,0,9.48,1.63,12.91,4.9c3.44,3.27,5.15,7.35,5.15,12.26c0,6.27-2.49,11.36-7.48,15.26s-11.46,5.86-19.43,5.86H129.16z
			 M90.7,317.53H75.8c-7.4,0-11.1,2.62-11.1,7.87c0,2.15,0.81,3.96,2.44,5.41c1.62,1.45,3.66,2.18,6.12,2.18
			c3.36,0,6.6-1.39,9.71-4.16S88.66,322.29,90.7,317.53z M134.65,248.71h2.61c2.83,0,5.26-0.71,7.28-2.12
			c2.02-1.42,3.03-3.14,3.03-5.18c0-3.02-1.42-4.53-4.25-4.53c-2.57,0-4.93,2.64-7.08,7.93L134.65,248.71z"/>
		<linearGradient id="SVGID_2_" gradientUnits="userSpaceOnUse" x1="178.6621" y1="302.0669" x2="178.6621" y2="257.9438">
			<stop  offset="0" style="stop-color:#26184C"/>
			<stop  offset="1" style="stop-color:#EE3A85"/>
		</linearGradient>
		<path class="st1" d="M191.29,289.72h6.23c4.76,0,7.14,1.66,7.14,4.98c0,2.3-0.85,4.11-2.55,5.41s-4.04,1.95-7.02,1.95h-7.25
			c-3.25,0-5.46-1.26-6.63-3.79c-2.83,2.53-5.57,3.79-8.21,3.79h-6.46c-4.15,0-7.5-1.48-10.05-4.45c-2.55-2.96-3.82-6.84-3.82-11.64
			c0-7.25,2.5-13.74,7.5-19.46c5-5.72,10.66-8.58,16.96-8.58c4.83,0,8.36,1.68,10.59,5.04c1.89-2.83,4.36-4.25,7.42-4.25
			c1.66,0,3.05,0.53,4.16,1.59c1.11,1.06,1.67,2.36,1.67,3.91c0,1.06-0.3,2.32-0.91,3.79l-0.62,1.53L191.29,289.72z M170.73,290
			h1.42c3.1,0,5.15-1.26,6.17-3.79l3.96-9.8c0.53-1.28,0.79-2.36,0.79-3.23c0-1.02-0.5-1.91-1.5-2.66c-1-0.75-2.2-1.13-3.6-1.13
			c-2.76,0-5.44,1.61-8.04,4.81c-2.61,3.21-3.91,6.53-3.91,9.97C166.03,288.06,167.6,290,170.73,290z"/>
		<linearGradient id="SVGID_3_" gradientUnits="userSpaceOnUse" x1="233.6602" y1="302.0669" x2="233.6602" y2="257.9438">
			<stop  offset="0" style="stop-color:#26184C"/>
			<stop  offset="1" style="stop-color:#EE3A85"/>
		</linearGradient>
		<path class="st2" d="M246.74,289.72h6.57c2.61,0,4.46,0.39,5.55,1.16c1.09,0.77,1.64,2.05,1.64,3.82c0,2.3-0.84,4.11-2.52,5.41
			c-1.68,1.3-4.03,1.95-7.05,1.95H240.8c-3.17,0-5.29-1.23-6.34-3.68c-2.08,2.46-4.68,3.68-7.82,3.68h-8.27
			c-3.32,0-6.08-1.04-8.27-3.12c-2.19-2.08-3.29-4.7-3.29-7.87c0-1.81,0.49-3.93,1.47-6.34l7.7-18.92c2.15-5.25,5.1-7.87,8.84-7.87
			c1.62,0,3,0.52,4.13,1.56c1.13,1.04,1.7,2.31,1.7,3.82c0,1.13-0.3,2.44-0.91,3.91l-0.62,1.53l-5.95,14.56l-0.62,1.7
			c-0.34,0.98-0.53,1.72-0.57,2.21c-0.08,1.7,1.02,2.55,3.29,2.55c4.68,0,7.8-1.89,9.35-5.66l7.08-17.45
			c2.11-5.29,5.1-7.93,8.95-7.93c1.59,0,2.95,0.53,4.08,1.59c1.13,1.06,1.7,2.32,1.7,3.79c0,1.17-0.49,2.98-1.47,5.44L246.74,289.72
			z"/>
		<linearGradient id="SVGID_4_" gradientUnits="userSpaceOnUse" x1="290.0176" y1="302.8599" x2="290.0176" y2="257.9438">
			<stop  offset="0" style="stop-color:#26184C"/>
			<stop  offset="1" style="stop-color:#EE3A85"/>
		</linearGradient>
		<path class="st3" d="M304.57,289.72h6.8c4.79,0,7.19,1.68,7.19,5.04c0,2.3-0.85,4.1-2.55,5.38c-1.7,1.28-4.04,1.93-7.02,1.93
			h-11.84c-2.3,0-4.24-0.7-5.81-2.1c-1.57-1.4-2.35-3.15-2.35-5.27c0-1.28,0.53-3.21,1.59-5.78l4.98-12.35
			c0.53-1.28,0.81-2.32,0.85-3.12c0.04-0.91-0.33-1.68-1.1-2.32c-0.77-0.64-1.77-0.96-2.97-0.96c-3.89,0-7.02,2.93-9.4,8.78
			l-6.68,16.43c-2,4.98-4.98,7.48-8.95,7.48c-1.62,0-3-0.49-4.13-1.47s-1.7-2.19-1.7-3.63c0-1.06,0.3-2.32,0.91-3.79l0.62-1.53
			l11.44-28.21c1.47-3.66,3.98-5.49,7.53-5.49c2.91,0,4.98,1.28,6.23,3.85c4.04-3.1,7.89-4.64,11.55-4.64
			c3.55,0,6.48,1.02,8.78,3.06c2.3,2.04,3.46,4.63,3.46,7.76c0,1.74-0.42,3.64-1.25,5.72L304.57,289.72z"/>
		<linearGradient id="SVGID_5_" gradientUnits="userSpaceOnUse" x1="341.7021" y1="302.0669" x2="341.7021" y2="257.9438">
			<stop  offset="0" style="stop-color:#26184C"/>
			<stop  offset="1" style="stop-color:#EE3A85"/>
		</linearGradient>
		<path class="st4" d="M353.12,302.07h-16.43c-4.72,0-8.56-1.66-11.53-4.98c-2.96-3.32-4.45-7.63-4.45-12.91
			c0-7.06,2.44-13.2,7.31-18.41s10.59-7.82,17.16-7.82c4.46,0,8.08,1.25,10.88,3.74c2.79,2.49,4.19,5.74,4.19,9.74
			c0,2.79-0.7,5.09-2.1,6.88c-1.4,1.79-3.19,2.69-5.38,2.69c-3.47,0-5.21-1.62-5.21-4.87c0-0.49,0-0.91,0-1.25
			c0.04-0.42,0.06-0.81,0.06-1.19c0-2.64-1.3-3.96-3.91-3.96c-2.46,0-4.69,1.3-6.71,3.91c-2.02,2.61-3.03,5.51-3.03,8.72
			c0,2.68,0.82,4.58,2.46,5.69c1.64,1.11,4.43,1.67,8.35,1.67h10.71c4.79,0,7.19,1.68,7.19,5.04c0,2.27-0.86,4.05-2.58,5.35
			C358.39,301.42,356.06,302.07,353.12,302.07z"/>
		<linearGradient id="SVGID_6_" gradientUnits="userSpaceOnUse" x1="392.1123" y1="302.8599" x2="392.1123" y2="223.9595">
			<stop  offset="0" style="stop-color:#26184C"/>
			<stop  offset="1" style="stop-color:#EE3A85"/>
		</linearGradient>
		<path class="st5" d="M392.03,261.17c3.96-2.15,7.23-3.23,9.8-3.23c3.63,0,6.6,1.01,8.92,3.03c2.32,2.02,3.48,4.6,3.48,7.73
			c0,1.89-0.45,3.95-1.36,6.17l-5.95,14.84h6.51c4.76,0,7.14,1.68,7.14,5.04c0,2.3-0.84,4.1-2.52,5.38
			c-1.68,1.28-4.03,1.93-7.05,1.93h-11.38c-2.42,0-4.45-0.69-6.09-2.07c-1.64-1.38-2.46-3.07-2.46-5.07c0-1.36,0.43-3.1,1.3-5.21
			l5.21-12.8c0.64-1.62,0.96-2.85,0.96-3.68c0-2.15-1.44-3.23-4.3-3.23c-3.85,0-7.1,3.29-9.74,9.86l-6.34,15.58
			c-2,4.95-4.97,7.42-8.89,7.42c-1.55,0-2.87-0.49-3.96-1.47c-1.1-0.98-1.64-2.17-1.64-3.57c0-1.06,0.28-2.3,0.85-3.74l0.62-1.53
			l24.64-60.78c2.15-5.21,5.1-7.82,8.84-7.82c1.55,0,2.88,0.52,3.99,1.56c1.11,1.04,1.67,2.29,1.67,3.77c0,1.21-0.49,3-1.47,5.38
			L392.03,261.17z"/>
		<linearGradient id="SVGID_7_" gradientUnits="userSpaceOnUse" x1="436.0938" y1="303.5962" x2="436.0938" y2="264.6841">
			<stop  offset="0" style="stop-color:#26184C"/>
			<stop  offset="1" style="stop-color:#EE3A85"/>
		</linearGradient>
		<path class="st6" d="M433.77,287.85c2.19,0,4.05,0.76,5.58,2.29s2.29,3.39,2.29,5.58c0,2.15-0.76,4-2.29,5.55
			s-3.39,2.32-5.58,2.32c-2.19,0-4.05-0.77-5.58-2.32s-2.29-3.4-2.29-5.55c0-2.19,0.76-4.05,2.29-5.58S431.58,287.85,433.77,287.85z
			 M438.42,264.68c2.19,0,4.05,0.76,5.58,2.29s2.29,3.39,2.29,5.58c0,2.19-0.76,4.05-2.29,5.58s-3.39,2.29-5.58,2.29
			c-2.19,0-4.05-0.76-5.58-2.29s-2.29-3.39-2.29-5.58c0-2.19,0.76-4.05,2.29-5.58S436.23,264.68,438.42,264.68z"/>
		<linearGradient id="SVGID_8_" gradientUnits="userSpaceOnUse" x1="473.8447" y1="302.0669" x2="473.8447" y2="250.9771">
			<stop  offset="0" style="stop-color:#26184C"/>
			<stop  offset="1" style="stop-color:#EE3A85"/>
		</linearGradient>
		<path class="st7" d="M465.83,271.14l-1.93,4.76c-1.74,4.23-4,6.34-6.8,6.34c-1.7,0-3.12-0.51-4.25-1.53s-1.7-2.28-1.7-3.79
			c0-0.87,0.42-2.34,1.25-4.42l6.4-15.8c1.55-3.81,3.74-5.72,6.57-5.72c2.79,0,4.51,1.32,5.15,3.96l0.45,1.76
			c0.23,0.91,0.57,1.47,1.02,1.7s1.57,0.34,3.34,0.34h13.25c4.95,0,7.42,1.74,7.42,5.21c0,4.8-3.13,7.19-9.4,7.19l-0.62,0.57
			c-6,5.74-9.01,10.18-9.01,13.31c0,3.13,1.74,4.7,5.21,4.7h7.14c4.79,0,7.19,1.66,7.19,4.98c0,2.34-0.84,4.15-2.52,5.44
			c-1.68,1.28-4.03,1.93-7.05,1.93h-11.1c-3.78,0-6.86-1.3-9.26-3.91c-2.4-2.61-3.6-5.98-3.6-10.14c0-2.64,0.64-5.21,1.93-7.7
			c1.28-2.49,3.55-5.55,6.8-9.18H465.83z"/>
	</g>
</g>
<polygon class="st8" points="313.96,452.61 316.57,452.61 316.57,452.61 313.96,452.61 "/>
<linearGradient id="SVGID_9_" gradientUnits="userSpaceOnUse" x1="397.5762" y1="234.3289" x2="410.8445" y2="195.3299" gradientTransform="matrix(0.9998 0.0211 -0.0211 0.9998 4.7473 -8.4373)">
	<stop  offset="0.2486" style="stop-color:#DB3381"/>
	<stop  offset="1" style="stop-color:#F391BC"/>
	<stop  offset="1" style="stop-color:#FFFFFF"/>
</linearGradient>
<polygon class="st9" points="410.42,195.18 375.25,226.22 419.72,241.16 "/>
<linearGradient id="SVGID_10_" gradientUnits="userSpaceOnUse" x1="382.7181" y1="243.6168" x2="403.7508" y2="243.6168" gradientTransform="matrix(1 5.257495e-03 -5.257495e-03 1 1.3142 -2.0562)">
	<stop  offset="0.5363" style="stop-color:#FFFFFF"/>
	<stop  offset="1" style="stop-color:#FFFFFF"/>
</linearGradient>
<line class="st10" x1="382.76" y1="240.1" x2="403.76" y2="247.15"/>
<linearGradient id="SVGID_11_" gradientUnits="userSpaceOnUse" x1="379.2429" y1="248.9409" x2="400.2755" y2="248.9409" gradientTransform="matrix(1 5.257495e-03 -5.257495e-03 1 1.3142 -2.0562)">
	<stop  offset="0.5363" style="stop-color:#FFFFFF"/>
	<stop  offset="1" style="stop-color:#FFFFFF"/>
</linearGradient>
<line class="st11" x1="379.26" y1="245.4" x2="400.26" y2="252.46"/>
<linearGradient id="SVGID_12_" gradientUnits="userSpaceOnUse" x1="384.9513" y1="237.8775" x2="405.9839" y2="237.8775" gradientTransform="matrix(1 5.257495e-03 -5.257495e-03 1 1.3142 -2.0562)">
	<stop  offset="0.5363" style="stop-color:#FFFFFF"/>
	<stop  offset="1" style="stop-color:#FFFFFF"/>
</linearGradient>
<line class="st12" x1="385.03" y1="234.37" x2="406.02" y2="241.43"/>
</svg>
