<?xml version="1.0" encoding="utf-8"?>
<!-- Generator: Adobe Illustrator 23.0.3, SVG Export Plug-In . SVG Version: 6.00 Build 0)  -->
<svg version="1.1" id="Layer_1" xmlns="http://www.w3.org/2000/svg" xmlns:xlink="http://www.w3.org/1999/xlink" x="0px" y="0px"
	 viewBox="0 0 595.3 841.9" style="enable-background:new 0 0 595.3 841.9;" xml:space="preserve">
<style type="text/css">
	.st0{fill:url(#SVGID_1_);}
	.st1{fill:url(#SVGID_2_);}
	.st2{fill:url(#SVGID_3_);}
	.st3{fill:url(#SVGID_4_);}
	.st4{fill:url(#SVGID_5_);}
	.st5{fill:url(#SVGID_6_);}
	.st6{fill:url(#SVGID_7_);}
	.st7{fill:url(#SVGID_8_);}
	.st8{fill:url(#SVGID_9_);}
	.st9{fill:none;stroke:#FFFFFF;stroke-width:3;stroke-miterlimit:10;}
</style>
<g>
	<g>
		
			<linearGradient id="SVGID_1_" gradientUnits="userSpaceOnUse" x1="82.915" y1="561.1" x2="82.915" y2="684.24" gradientTransform="matrix(1 0 0 -1 0 841.89)">
			<stop  offset="0" style="stop-color:#26184C"/>
			<stop  offset="1" style="stop-color:#EE3A85"/>
		</linearGradient>
		<path class="st0" d="M106.5,195.9l-17,41.7h39.3c5.3,0,7.9,1.8,7.9,5.4c0,2.6-0.9,4.6-2.8,6s-4.4,2.1-7.7,2.1H84l-0.7,1.6
			c-2.6,5.9-4.7,10-6.2,12.4c-1.5,2.4-3.5,4.7-5.9,6.9c-6.3,5.8-13.6,8.7-21.8,8.7c-6.7,0-12.1-2-16.5-6c-4.3-4-6.5-9-6.5-15.1
			c0-3.8,0.9-7.4,2.8-10.7c1.9-3.3,4.4-5.9,7.5-7.8c4.1-2.4,9.7-3.6,16.8-3.6h20l16.9-41.7h-6.8h-1.5c-4.2,0-6.3-1.9-6.3-5.6
			c0-2.4,0.9-4.4,2.8-5.8c1.8-1.4,4.4-2.1,7.7-2.1H96l2.6-6.4c4.9-12.2,12.5-18.4,22.7-18.4c5.2,0,9.5,1.6,12.9,4.9
			c3.4,3.3,5.1,7.4,5.1,12.3c0,6.3-2.5,11.4-7.5,15.3s-11.5,5.9-19.4,5.9L106.5,195.9L106.5,195.9z M68,251.2H53.1
			c-7.4,0-11.1,2.6-11.1,7.9c0,2.1,0.8,4,2.4,5.4c1.6,1.5,3.7,2.2,6.1,2.2c3.4,0,6.6-1.4,9.7-4.2S66,256,68,251.2z M112,182.4h2.6
			c2.8,0,5.3-0.7,7.3-2.1c2-1.4,3-3.1,3-5.2c0-3-1.4-4.5-4.3-4.5c-2.6,0-4.9,2.6-7.1,7.9L112,182.4z"/>
		
			<linearGradient id="SVGID_2_" gradientUnits="userSpaceOnUse" x1="155.985" y1="606.14" x2="155.985" y2="650.27" gradientTransform="matrix(1 0 0 -1 0 841.89)">
			<stop  offset="0" style="stop-color:#26184C"/>
			<stop  offset="1" style="stop-color:#EE3A85"/>
		</linearGradient>
		<path class="st1" d="M168.6,223.4h6.2c4.8,0,7.1,1.7,7.1,5c0,2.3-0.9,4.1-2.6,5.4s-4,1.9-7,1.9h-7.3c-3.3,0-5.5-1.3-6.6-3.8
			c-2.8,2.5-5.6,3.8-8.2,3.8h-6.5c-4.1,0-7.5-1.5-10.1-4.4c-2.6-3-3.8-6.8-3.8-11.6c0-7.3,2.5-13.7,7.5-19.5c5-5.7,10.7-8.6,17-8.6
			c4.8,0,8.4,1.7,10.6,5c1.9-2.8,4.4-4.3,7.4-4.3c1.7,0,3.1,0.5,4.2,1.6s1.7,2.4,1.7,3.9c0,1.1-0.3,2.3-0.9,3.8l-0.6,1.5
			L168.6,223.4z M148.1,223.7h1.4c3.1,0,5.1-1.3,6.2-3.8l4-9.8c0.5-1.3,0.8-2.4,0.8-3.2c0-1-0.5-1.9-1.5-2.7s-2.2-1.1-3.6-1.1
			c-2.8,0-5.4,1.6-8,4.8c-2.6,3.2-3.9,6.5-3.9,10C143.4,221.7,144.9,223.7,148.1,223.7z"/>
		
			<linearGradient id="SVGID_3_" gradientUnits="userSpaceOnUse" x1="210.97" y1="606.14" x2="210.97" y2="650.2599" gradientTransform="matrix(1 0 0 -1 0 841.89)">
			<stop  offset="0" style="stop-color:#26184C"/>
			<stop  offset="1" style="stop-color:#EE3A85"/>
		</linearGradient>
		<path class="st2" d="M224.1,223.4h6.6c2.6,0,4.5,0.4,5.6,1.2s1.6,2.1,1.6,3.8c0,2.3-0.8,4.1-2.5,5.4c-1.7,1.3-4,1.9-7.1,1.9h-10.1
			c-3.2,0-5.3-1.2-6.3-3.7c-2.1,2.5-4.7,3.7-7.8,3.7h-8.3c-3.3,0-6.1-1-8.3-3.1s-3.3-4.7-3.3-7.9c0-1.8,0.5-3.9,1.5-6.3l7.7-18.9
			c2.1-5.3,5.1-7.9,8.8-7.9c1.6,0,3,0.5,4.1,1.6s1.7,2.3,1.7,3.8c0,1.1-0.3,2.4-0.9,3.9l-0.6,1.5l-5.9,14.6l-0.6,1.7
			c-0.3,1-0.5,1.7-0.6,2.2c-0.1,1.7,1,2.6,3.3,2.6c4.7,0,7.8-1.9,9.4-5.7l7.1-17.4c2.1-5.3,5.1-7.9,8.9-7.9c1.6,0,2.9,0.5,4.1,1.6
			s1.7,2.3,1.7,3.8c0,1.2-0.5,3-1.5,5.4L224.1,223.4z"/>
		
			<linearGradient id="SVGID_4_" gradientUnits="userSpaceOnUse" x1="267.34" y1="605.34" x2="267.34" y2="650.25" gradientTransform="matrix(1 0 0 -1 0 841.89)">
			<stop  offset="0" style="stop-color:#26184C"/>
			<stop  offset="1" style="stop-color:#EE3A85"/>
		</linearGradient>
		<path class="st3" d="M281.9,223.4h6.8c4.8,0,7.2,1.7,7.2,5c0,2.3-0.9,4.1-2.5,5.4c-1.7,1.3-4,1.9-7,1.9h-11.8
			c-2.3,0-4.2-0.7-5.8-2.1c-1.6-1.4-2.4-3.1-2.4-5.3c0-1.3,0.5-3.2,1.6-5.8l5-12.4c0.5-1.3,0.8-2.3,0.9-3.1c0-0.9-0.3-1.7-1.1-2.3
			c-0.8-0.6-1.8-1-3-1c-3.9,0-7,2.9-9.4,8.8l-6.7,16.4c-2,5-5,7.5-8.9,7.5c-1.6,0-3-0.5-4.1-1.5s-1.7-2.2-1.7-3.6
			c0-1.1,0.3-2.3,0.9-3.8l0.6-1.5l11.4-28.2c1.5-3.7,4-5.5,7.5-5.5c2.9,0,5,1.3,6.2,3.9c4-3.1,7.9-4.6,11.5-4.6c3.5,0,6.5,1,8.8,3.1
			s3.5,4.6,3.5,7.8c0,1.7-0.4,3.6-1.3,5.7L281.9,223.4z"/>
		
			<linearGradient id="SVGID_5_" gradientUnits="userSpaceOnUse" x1="319.005" y1="606.13" x2="319.005" y2="650.25" gradientTransform="matrix(1 0 0 -1 0 841.89)">
			<stop  offset="0" style="stop-color:#26184C"/>
			<stop  offset="1" style="stop-color:#EE3A85"/>
		</linearGradient>
		<path class="st4" d="M330.4,235.8H314c-4.7,0-8.6-1.7-11.5-5c-3-3.3-4.5-7.6-4.5-12.9c0-7.1,2.4-13.2,7.3-18.4s10.6-7.8,17.2-7.8
			c4.5,0,8.1,1.3,10.9,3.7c2.8,2.5,4.2,5.7,4.2,9.7c0,2.8-0.7,5.1-2.1,6.9c-1.4,1.8-3.2,2.7-5.4,2.7c-3.5,0-5.2-1.6-5.2-4.9
			c0-0.5,0-0.9,0-1.3c0-0.4,0.1-0.8,0.1-1.2c0-2.6-1.3-4-3.9-4c-2.5,0-4.7,1.3-6.7,3.9s-3,5.5-3,8.7c0,2.7,0.8,4.6,2.5,5.7
			c1.6,1.1,4.4,1.7,8.4,1.7h10.7c4.8,0,7.2,1.7,7.2,5c0,2.3-0.9,4.1-2.6,5.4C335.7,235.1,333.4,235.8,330.4,235.8z"/>
		
			<linearGradient id="SVGID_6_" gradientUnits="userSpaceOnUse" x1="369.43" y1="605.33" x2="369.43" y2="684.2401" gradientTransform="matrix(1 0 0 -1 0 841.89)">
			<stop  offset="0" style="stop-color:#26184C"/>
			<stop  offset="1" style="stop-color:#EE3A85"/>
		</linearGradient>
		<path class="st5" d="M369.3,194.9c4-2.1,7.2-3.2,9.8-3.2c3.6,0,6.6,1,8.9,3s3.5,4.6,3.5,7.7c0,1.9-0.5,3.9-1.4,6.2l-6,14.8h6.5
			c4.8,0,7.1,1.7,7.1,5c0,2.3-0.8,4.1-2.5,5.4s-4,1.9-7,1.9h-11.4c-2.4,0-4.5-0.7-6.1-2.1c-1.6-1.4-2.5-3.1-2.5-5.1
			c0-1.4,0.4-3.1,1.3-5.2l5.2-12.8c0.6-1.6,1-2.9,1-3.7c0-2.1-1.4-3.2-4.3-3.2c-3.9,0-7.1,3.3-9.7,9.9l-6.3,15.6
			c-2,4.9-5,7.4-8.9,7.4c-1.5,0-2.9-0.5-4-1.5c-1.1-1-1.6-2.2-1.6-3.6c0-1.1,0.3-2.3,0.9-3.7l0.6-1.5l24.6-60.8
			c2.1-5.2,5.1-7.8,8.8-7.8c1.5,0,2.9,0.5,4,1.6s1.7,2.3,1.7,3.8c0,1.2-0.5,3-1.5,5.4L369.3,194.9z"/>
		
			<linearGradient id="SVGID_7_" gradientUnits="userSpaceOnUse" x1="413.41" y1="604.6" x2="413.41" y2="643.51" gradientTransform="matrix(1 0 0 -1 0 841.89)">
			<stop  offset="0" style="stop-color:#26184C"/>
			<stop  offset="1" style="stop-color:#EE3A85"/>
		</linearGradient>
		<path class="st6" d="M411.1,221.5c2.2,0,4,0.8,5.6,2.3s2.3,3.4,2.3,5.6c0,2.1-0.8,4-2.3,5.6s-3.4,2.3-5.6,2.3
			c-2.2,0-4-0.8-5.6-2.3s-2.3-3.4-2.3-5.6c0-2.2,0.8-4.1,2.3-5.6S408.9,221.5,411.1,221.5z M415.7,198.4c2.2,0,4,0.8,5.6,2.3
			s2.3,3.4,2.3,5.6s-0.8,4.1-2.3,5.6s-3.4,2.3-5.6,2.3c-2.2,0-4-0.8-5.6-2.3s-2.3-3.4-2.3-5.6s0.8-4.1,2.3-5.6
			S413.5,198.4,415.7,198.4z"/>
		
			<linearGradient id="SVGID_8_" gradientUnits="userSpaceOnUse" x1="451.15" y1="606.12" x2="451.15" y2="657.21" gradientTransform="matrix(1 0 0 -1 0 841.89)">
			<stop  offset="0" style="stop-color:#26184C"/>
			<stop  offset="1" style="stop-color:#EE3A85"/>
		</linearGradient>
		<path class="st7" d="M443.1,204.8l-1.9,4.8c-1.7,4.2-4,6.3-6.8,6.3c-1.7,0-3.1-0.5-4.3-1.5s-1.7-2.3-1.7-3.8
			c0-0.9,0.4-2.3,1.3-4.4l6.4-15.8c1.5-3.8,3.7-5.7,6.6-5.7c2.8,0,4.5,1.3,5.1,4l0.5,1.8c0.2,0.9,0.6,1.5,1,1.7s1.6,0.3,3.3,0.3
			h13.3c5,0,7.4,1.7,7.4,5.2c0,4.8-3.1,7.2-9.4,7.2l-0.6,0.6c-6,5.7-9,10.2-9,13.3s1.7,4.7,5.2,4.7h7.1c4.8,0,7.2,1.7,7.2,5
			c0,2.3-0.8,4.1-2.5,5.4c-1.7,1.3-4,1.9-7,1.9h-11.1c-3.8,0-6.9-1.3-9.3-3.9c-2.4-2.6-3.6-6-3.6-10.1c0-2.6,0.6-5.2,1.9-7.7
			c1.3-2.5,3.5-5.6,6.8-9.2H443.1z"/>
	</g>
</g>
<linearGradient id="SVGID_9_" gradientUnits="userSpaceOnUse" x1="373.484" y1="673.3617" x2="386.7526" y2="712.3617" gradientTransform="matrix(0.9998 2.110000e-02 2.110000e-02 -0.9998 -13.0166 833.2843)">
	<stop  offset="0.2654" style="stop-color:#D1337F"/>
	<stop  offset="1" style="stop-color:#F391BC"/>
	<stop  offset="1" style="stop-color:#FFFFFF"/>
</linearGradient>
<polygon class="st8" points="387.7,128.9 352.6,159.9 397,174.9 "/>
<line class="st9" x1="356.2" y1="184.4" x2="378.4" y2="184.4"/>
<line class="st9" x1="359.2" y1="178.4" x2="381.4" y2="178.4"/>
<line class="st9" x1="361.2" y1="172.4" x2="383.4" y2="172.4"/>
</svg>
